<svg width="166" height="170" viewBox="0 0 166 170" fill="none" xmlns="http://www.w3.org/2000/svg">
<path d="M165.907 3.88981V166H134.864L131.415 152.203L129.691 150.479L127.966 152.203C116.469 163.701 101.523 169.449 83.1271 169.449C60.1328 169.449 40.5876 161.516 24.4915 145.65C8.39548 129.784 0.347459 109.549 0.347459 84.9449C0.347459 60.3409 8.39548 40.1059 24.4915 24.2398C40.5876 8.37371 60.1328 0.440657 83.1271 0.440657C101.523 0.440657 116.469 6.18925 127.966 17.6864L129.691 19.411L131.415 17.6864L134.864 3.88981H165.907ZM120.723 122.886C130.151 112.538 134.864 99.8912 134.864 84.9449C134.864 69.9986 130.151 57.3517 120.723 47.0042C111.295 36.6568 99.3382 31.483 84.8517 31.483C68.9856 31.483 56.5687 36.5418 47.6009 46.6593C38.863 56.7768 34.4941 69.5387 34.4941 84.9449C34.4941 100.351 38.863 113.113 47.6009 123.231C56.5687 133.348 68.9856 138.407 84.8517 138.407C99.3382 138.407 111.295 133.233 120.723 122.886Z" fill="#9E0059"/>
</svg>
