<svg width="1138" height="1148" viewBox="0 0 1138 1148" fill="none" xmlns="http://www.w3.org/2000/svg">
<path d="M672 467.894C672 496.664 648.644 520 619.823 520H408.151C379.356 520 356 496.664 356 467.894C356 439.123 379.356 415.762 408.151 415.762C426.686 415.762 442.953 425.395 452.182 439.947C458.781 410.79 484.87 389 516.088 389C547.307 389 570.766 408.653 578.886 435.646C588.398 423.54 603.196 415.762 619.823 415.762C648.644 415.762 672 439.097 672 467.894Z" fill="#8C50F0" stroke="#390099" stroke-width="6" stroke-miterlimit="10"/>
<path d="M163 998.894C163 1027.66 139.644 1051 110.823 1051H-100.849C-129.644 1051 -153 1027.66 -153 998.894C-153 970.123 -129.644 946.762 -100.849 946.762C-82.3138 946.762 -66.0471 956.395 -56.8182 970.947C-50.2188 941.79 -24.1304 920 7.0881 920C38.3066 920 61.7655 939.653 69.8859 966.646C79.3984 954.54 94.1956 946.762 110.823 946.762C139.644 946.762 163 970.097 163 998.894Z" fill="#FF0054" stroke="#9E0059" stroke-width="6" stroke-miterlimit="10"/>
<path d="M1022 795.894C1022 824.664 998.644 848 969.823 848H758.151C729.356 848 706 824.664 706 795.894C706 767.123 729.356 743.762 758.151 743.762C776.686 743.762 792.953 753.395 802.182 767.947C808.781 738.79 834.87 717 866.088 717C897.307 717 920.766 736.653 928.886 763.646C938.398 751.54 953.196 743.762 969.823 743.762C998.644 743.762 1022 767.097 1022 795.894Z" fill="#FF0054" stroke="#9E0059" stroke-width="6" stroke-miterlimit="10"/>
<path d="M1045 297.894C1045 326.664 1021.64 350 992.823 350H781.151C752.356 350 729 326.664 729 297.894C729 269.123 752.356 245.762 781.151 245.762C799.686 245.762 815.953 255.395 825.182 269.947C831.781 240.79 857.87 219 889.088 219C920.307 219 943.766 238.653 951.886 265.646C961.398 253.54 976.196 245.762 992.823 245.762C1021.64 245.762 1045 269.097 1045 297.894Z" fill="#FF0054" stroke="#9E0059" stroke-width="6" stroke-miterlimit="10"/>
<path d="M808 1092.89C808 1121.66 784.644 1145 755.823 1145H544.151C515.356 1145 492 1121.66 492 1092.89C492 1064.12 515.356 1040.76 544.151 1040.76C562.686 1040.76 578.953 1050.39 588.182 1064.95C594.781 1035.79 620.87 1014 652.088 1014C683.307 1014 706.766 1033.65 714.886 1060.65C724.398 1048.54 739.196 1040.76 755.823 1040.76C784.644 1040.76 808 1064.1 808 1092.89Z" fill="#8C50F0" stroke="#390099" stroke-width="6" stroke-miterlimit="10"/>
<path d="M298 598.894C298 627.664 274.644 651 245.823 651H34.1511C5.35585 651 -18 627.664 -18 598.894C-18 570.123 5.35585 546.762 34.1511 546.762C52.6862 546.762 68.9529 556.395 78.1818 570.947C84.7812 541.79 110.87 520 142.088 520C173.307 520 196.766 539.653 204.886 566.646C214.398 554.54 229.196 546.762 245.823 546.762C274.644 546.762 298 570.097 298 598.894Z" fill="#FF5400" stroke="#FFBD00" stroke-width="6" stroke-miterlimit="10"/>
<path d="M906 81.8936C906 110.664 882.644 134 853.823 134H642.151C613.356 134 590 110.664 590 81.8936C590 53.1231 613.356 29.7615 642.151 29.7615C660.686 29.7615 676.953 39.3946 686.182 53.9473C692.781 24.7904 718.87 3 750.088 3C781.307 3 804.766 22.6526 812.886 49.6459C822.398 37.5401 837.196 29.7615 853.823 29.7615C882.644 29.7615 906 53.0973 906 81.8936Z" fill="#FF5400" stroke="#FFBD00" stroke-width="6" stroke-miterlimit="10"/>
<path d="M1135 582.031C1135 604.652 1116.52 623 1093.72 623H926.259C903.478 623 885 604.652 885 582.031C885 559.41 903.478 541.041 926.259 541.041C940.923 541.041 953.792 548.616 961.093 560.058C966.314 537.133 986.954 520 1011.65 520C1036.35 520 1054.91 535.452 1061.33 556.676C1068.86 547.157 1080.57 541.041 1093.72 541.041C1116.52 541.041 1135 559.389 1135 582.031Z" fill="#FF5400" stroke="#FFBD00" stroke-width="6" stroke-miterlimit="10"/>
<path d="M590 856.031C590 878.652 571.522 897 548.721 897H381.259C358.478 897 340 878.652 340 856.031C340 833.41 358.478 815.041 381.259 815.041C395.923 815.041 408.792 822.616 416.093 834.058C421.314 811.133 441.954 794 466.652 794C491.35 794 509.909 809.452 516.334 830.676C523.86 821.157 535.566 815.041 548.721 815.041C571.522 815.041 590 833.389 590 856.031Z" fill="#8C50F0" stroke="#390099" stroke-width="6" stroke-miterlimit="10"/>
<path d="M293 215.347C293 249.389 265.209 277 230.916 277H-20.9468C-55.2095 277 -83 249.389 -83 215.347C-83 181.306 -55.2095 153.664 -20.9468 153.664C1.10768 153.664 20.4629 165.062 31.4441 182.281C39.2966 147.783 70.3385 122 107.485 122C144.631 122 172.544 145.253 182.206 177.192C193.525 162.868 211.132 153.664 230.916 153.664C265.209 153.664 293 181.275 293 215.347Z" fill="#FF0054" stroke="#9E0059" stroke-width="6" stroke-miterlimit="10"/>
</svg>
