<svg width="445" height="444" viewBox="0 0 445 444" fill="none" xmlns="http://www.w3.org/2000/svg">
<path d="M43.0974 91.8026C114.948 -7.31881 253.548 -29.4263 352.669 42.4241C451.791 114.274 473.898 252.875 402.048 351.996C330.198 451.118 191.597 473.225 92.476 401.375C-6.64546 329.524 -28.753 190.924 43.0974 91.8026Z" fill="#FF5400"/>
<path d="M296.415 341.18L310.051 369.576L285.863 381.192L269.954 348.063L265.747 350.083L259.434 336.937L264.955 334.286L268.743 342.174L292.932 330.558L289.144 322.67L294.666 320.018L300.979 333.165L298.455 334.377C297.156 335.086 296.315 336.03 295.931 337.206C295.547 338.383 295.708 339.708 296.415 341.18ZM290.935 337.988L275.475 345.412L288.859 373.282L302.268 366.842L291.409 344.231C290.433 342.198 290.275 340.117 290.935 337.988Z" fill="#390099"/>
<path d="M261.653 351.547C266.608 355.253 269.542 360.184 270.456 366.339C271.371 372.493 269.994 378.045 266.326 382.993C262.625 387.986 257.697 390.94 251.542 391.854C245.388 392.768 239.833 391.372 234.879 387.666C229.892 384.003 226.942 379.095 226.027 372.94C225.113 366.785 226.506 361.212 230.207 356.219C233.875 351.271 238.786 348.339 244.941 347.425C251.096 346.51 256.667 347.884 261.653 351.547ZM264.389 367.181C263.681 362.411 261.597 358.711 258.14 356.079C254.644 353.453 250.53 352.492 245.798 353.195C241.067 353.898 237.43 356.011 234.887 359.534C232.343 363.057 231.426 367.204 232.135 371.974C232.849 376.782 234.935 380.502 238.393 383.133C241.856 385.803 245.954 386.787 250.685 386.084C255.417 385.381 259.07 383.246 261.646 379.679C264.189 376.155 265.104 371.99 264.389 367.181Z" fill="#390099"/>
<path d="M217.671 361.401L212.826 393.706L185.713 389.64L192.028 347.528L198.086 348.436L192.635 384.78L207.634 387.029L211.605 360.55C212.038 357.666 213.368 355.348 215.597 353.598C217.787 351.843 220.536 351.213 223.843 351.709L224.911 352.459L224.132 357.651L222.978 357.478C221.517 357.259 220.322 357.492 219.393 358.179C218.464 358.865 217.89 359.939 217.671 361.401Z" fill="#390099"/>
<path d="M164.233 383.671L176.969 354.861L147.64 376.336L141.505 373.624L158.722 334.676L164.271 337.129L151.299 366.473L180.864 344.464L186.999 347.177L169.782 386.124L164.233 383.671Z" fill="#390099"/>
<path d="M121.507 337.75L110.105 351.785L105.351 347.924L132.201 314.871L136.955 318.733L125.185 333.222L137.863 343.521L149.633 329.032L154.387 332.894L127.537 365.946L122.783 362.084L134.185 348.048L121.507 337.75Z" fill="#390099"/>
<path d="M130.49 314.885L87.5027 328.23L83.7174 323.049L109.499 286.153L113.112 291.098L106.4 300.698L115.725 313.463L126.877 309.939L130.49 314.885ZM92.2044 320.822L109.845 315.303L102.859 305.741L92.2044 320.822Z" fill="#390099"/>
<path d="M104.031 277.682L59.0748 275.457L57.2985 269.292L94.1806 243.49L95.8762 249.375L86.2757 256.087L90.6519 271.278L102.336 271.797L104.031 277.682ZM66.0342 270.114L84.4975 270.987L81.2193 259.608L66.0342 270.114Z" fill="#390099"/>
<path d="M52.0478 250.195L51.6334 243.499L70.8957 233.657L50.5525 226.032L50.1382 219.337L93.8294 235.92L94.2329 242.441L78.317 236.471L52.0478 250.195Z" fill="#390099"/>
<path d="M92.4254 216.369L50.4039 209.474L52.907 194.219C53.5242 190.459 55.1632 187.555 57.8241 185.509C60.4529 183.418 63.5518 182.666 67.1207 183.251C70.6897 183.837 73.4047 185.544 75.2659 188.371C77.095 191.154 77.7009 194.426 77.0838 198.187L75.5725 207.397L93.4172 210.325L92.4254 216.369ZM69.8161 206.452L71.3746 196.954C71.6769 195.112 71.3947 193.47 70.528 192.027C69.6292 190.54 68.1628 189.629 66.1289 189.295C64.095 188.962 62.4337 189.359 61.1451 190.488C59.8244 191.571 59.0129 193.034 58.7106 194.876L57.1521 204.374L69.8161 206.452Z" fill="#390099"/>
<path d="M56.3377 174.727L58.8202 168.495L80.4404 167.813L65.2961 152.237L67.7785 146.005L100.216 179.646L97.7979 185.716L85.9515 173.525L56.3377 174.727Z" fill="#390099"/>
<path d="M105.863 136.303L92.4361 109.408L97.847 102.532L131.312 128.865L127.561 133.632L100.559 112.385L112.795 137.304L108.466 142.805L81.3684 136.774L108.37 158.021L104.618 162.788L71.153 136.455L76.5639 129.579L105.863 136.303Z" fill="#390099"/>
<path d="M141.931 106.201L126.992 78.469L150.616 65.743L168.045 98.0973L172.153 95.8841L179.07 108.723L173.677 111.628L169.527 103.925L145.904 116.651L150.053 124.354L144.661 127.259L137.745 114.42L140.21 113.092C141.474 112.323 142.271 111.341 142.6 110.148C142.929 108.955 142.706 107.639 141.931 106.201ZM147.554 109.136L162.652 101.002L147.99 73.7835L134.894 80.8381L146.79 102.921C147.86 104.907 148.114 106.978 147.554 109.136Z" fill="#390099"/>
<path d="M176.166 94.2423C171.043 90.7732 167.879 85.9862 166.676 79.8814C165.473 73.7767 166.586 68.1664 170.017 63.0507C173.479 57.8893 178.262 54.7069 184.367 53.5036C190.472 52.3002 196.086 53.4331 201.209 56.9022C206.363 60.3257 209.542 65.0898 210.745 71.1946C211.948 77.2993 210.819 82.9324 207.358 88.0938C203.927 93.2095 199.159 96.369 193.054 97.5724C186.949 98.7758 181.32 97.6658 176.166 94.2423ZM172.697 78.7541C173.629 83.4853 175.885 87.0838 179.462 89.5495C183.078 92.0077 187.233 92.7743 191.926 91.8492C196.619 90.9241 200.153 88.642 202.527 85.003C204.901 81.364 205.622 77.1789 204.69 72.4477C203.749 67.6783 201.49 64.0607 197.913 61.595C194.327 59.0911 190.188 58.3017 185.495 59.2268C180.802 60.1519 177.253 62.4568 174.848 66.1415C172.474 69.7805 171.757 73.9847 172.697 78.7541Z" fill="#390099"/>
<path d="M219.597 82.3231L222.926 49.8263L250.2 52.6202L245.861 94.982L239.768 94.3579L243.513 57.799L228.425 56.2535L225.696 82.8892C225.399 85.7907 224.178 88.1676 222.034 90.0198C219.928 91.876 217.212 92.6337 213.885 92.2929L212.784 91.5937L213.319 86.371L214.479 86.4899C215.95 86.6405 217.132 86.3512 218.028 85.622C218.924 84.8928 219.447 83.7932 219.597 82.3231Z" fill="#390099"/>
<path d="M271.97 57.6014L260.59 86.9739L288.887 64.1556L295.142 66.5792L279.757 106.287L274.1 104.095L285.692 74.1783L257.184 97.5405L250.929 95.1169L266.313 55.4096L271.97 57.6014Z" fill="#390099"/>
<path d="M316.787 101.485L327.515 86.9277L332.446 90.5615L307.183 124.842L302.252 121.208L313.326 106.181L300.178 96.491L289.103 111.518L284.173 107.884L309.436 73.604L314.367 77.2378L303.638 91.7951L316.787 101.485Z" fill="#390099"/>
<path d="M308.871 124.678L351.188 109.338L355.211 114.336L331.183 152.398L327.342 147.627L333.599 137.723L323.686 125.409L312.712 129.45L308.871 124.678ZM346.838 116.958L329.474 123.296L336.899 132.521L346.838 116.958Z" fill="#390099"/>
<path d="M337.07 160.688L382.081 160.801L384.145 166.877L348.514 194.381L346.544 188.582L355.819 181.427L350.735 166.458L339.04 166.488L337.07 160.688ZM375.38 166.466L356.896 166.46L360.705 177.673L375.38 166.466Z" fill="#390099"/>
<path d="M390.266 185.675L390.994 192.344L372.215 203.079L392.894 209.74L393.622 216.409L349.2 201.895L348.491 195.4L364.67 200.616L390.266 185.675Z" fill="#390099"/>
<path d="M351.533 221.377L393.828 226.322L392.033 241.676C391.59 245.461 390.087 248.437 387.524 250.604C384.995 252.814 381.934 253.709 378.342 253.289C374.749 252.869 371.958 251.29 369.968 248.552C368.013 245.856 367.256 242.616 367.699 238.831L368.783 229.56L350.822 227.46L351.533 221.377ZM374.576 230.238L373.459 239.798C373.242 241.652 373.6 243.279 374.532 244.68C375.499 246.125 377.006 246.967 379.053 247.206C381.1 247.445 382.741 246.971 383.976 245.785C385.246 244.641 385.988 243.142 386.205 241.288L387.323 231.728L374.576 230.238Z" fill="#390099"/>
<path d="M389.5 261.297L387.309 267.637L365.744 269.321L381.595 284.178L379.404 290.519L345.441 258.419L347.574 252.243L359.974 263.871L389.5 261.297Z" fill="#390099"/>
<path d="M341.821 301.977L356.5 328.21L351.419 335.334L316.75 310.606L320.273 305.667L348.245 325.618L334.849 301.303L338.914 295.605L366.266 300.353L338.294 280.402L341.817 275.463L376.485 300.19L371.404 307.314L341.821 301.977Z" fill="#390099"/>
</svg>
