<svg width="75" height="143" viewBox="0 0 75 143" fill="none" xmlns="http://www.w3.org/2000/svg">
<path d="M64.3468 24.5222L63.5236 26.3645C62.034 29.6572 63.014 33.577 65.8755 35.8114L67.4826 37.0657C72.6569 41.064 70.9713 49.2565 64.6211 50.8636L62.6612 51.3732C59.1333 52.2748 56.703 55.4499 56.7422 59.0953V61.1337C56.8598 67.6798 49.4121 71.4429 44.1987 67.4838L42.5915 66.2687C39.6908 64.0736 35.6926 64.152 32.8703 66.4647L31.3023 67.7582C26.2457 71.9133 18.6412 68.4246 18.4844 61.8784V59.8401C18.3668 56.1946 15.7797 53.098 12.2126 52.3532L10.2135 51.922C3.8241 50.55 1.78577 42.4359 6.80319 38.2417L8.37113 36.9481C11.1542 34.5962 11.9774 30.6763 10.3311 27.4229L9.42949 25.6197C6.4896 19.7791 11.5854 13.1154 18.014 14.4089L20.0131 14.8009C23.5802 15.5065 27.1473 13.7034 28.676 10.4107L29.5384 8.56833C32.2823 2.64934 40.6708 2.45335 43.6499 8.29394L44.5906 10.0971C46.237 13.3506 49.9217 14.9969 53.4495 14.1345L55.4095 13.6642C61.7596 12.0962 67.1298 18.564 64.4251 24.5222H64.3468Z" fill="#FFBD00" stroke="#FF5400" stroke-width="7.78098" stroke-miterlimit="10"/>
<path d="M37.731 64.7012V142.667" stroke="#FF5400" stroke-width="7.78098" stroke-miterlimit="10"/>
<path d="M37.731 46.042C41.6927 46.042 44.9043 42.8304 44.9043 38.8687C44.9043 34.9069 41.6927 31.6953 37.731 31.6953C33.7692 31.6953 30.5576 34.9069 30.5576 38.8687C30.5576 42.8304 33.7692 46.042 37.731 46.042Z" fill="#8C50F0" stroke="#FF5400" stroke-width="7.78098" stroke-miterlimit="10"/>
</svg>
