<svg width="110" height="182" viewBox="0 0 110 182" fill="none" xmlns="http://www.w3.org/2000/svg">
<path d="M55.0003 41.4079C55.0003 42.646 54.9465 43.8841 54.8388 45.0952C53.8699 45.2029 52.8471 45.2298 51.8512 45.2298C30.6421 45.2298 13.4434 28.058 13.4434 6.84886C13.4434 5.58385 13.4972 4.34576 13.6048 3.13458C14.5738 3.02692 15.5966 3 16.5924 3C37.8015 3 55.0003 20.1988 55.0003 41.4079Z" fill="#390099" stroke="#FF0054" stroke-width="6" stroke-miterlimit="10"/>
<path d="M55 45.2305V71.2305" stroke="#FF0054" stroke-width="6" stroke-miterlimit="10"/>
<path d="M55 41.4079C55 42.646 55.0538 43.8841 55.1615 45.0952C56.1304 45.2029 57.1532 45.2298 58.1491 45.2298C79.3582 45.2298 96.5569 28.058 96.5569 6.84886C96.5569 5.58385 96.5031 4.34576 96.3954 3.13458C95.4265 3.02692 94.4037 3 93.4079 3C72.1988 3 55 20.1988 55 41.4079Z" fill="#390099" stroke="#FF0054" stroke-width="6" stroke-miterlimit="10"/>
<path d="M101.671 102.748H8.32919C5.39545 102.748 3 100.379 3 97.4185V76.5323C3 73.5986 5.36853 71.2031 8.32919 71.2031H101.671C104.605 71.2031 107 73.5717 107 76.5323V97.4185C107 100.352 104.631 102.748 101.671 102.748Z" fill="#FFBD00" stroke="#FF0054" stroke-width="6" stroke-miterlimit="10"/>
<path d="M83.1532 178.379H26.8468C24.6936 178.379 22.8365 176.818 22.4866 174.692L10.6978 102.774H99.3292L87.5404 174.692C87.1905 176.818 85.3603 178.379 83.1802 178.379H83.1532Z" fill="#FFBD00" stroke="#FF0054" stroke-width="6" stroke-miterlimit="10"/>
</svg>
