<svg width="149" height="248" viewBox="0 0 149 248" fill="none" xmlns="http://www.w3.org/2000/svg">
<path d="M74.5002 55.8108C74.5002 57.5132 74.4261 59.2156 74.2781 60.881C72.9458 61.029 71.5395 61.066 70.1702 61.066C41.0077 61.066 17.3594 37.4547 17.3594 8.29218C17.3594 6.55279 17.4334 4.85041 17.5814 3.18504C18.9137 3.03701 20.32 3 21.6893 3C50.8519 3 74.5002 26.6483 74.5002 55.8108Z" fill="#FF0054" stroke="#FF5400" stroke-width="6" stroke-miterlimit="10"/>
<path d="M74.5 61.0664V96.8164" stroke="#FF5400" stroke-width="6" stroke-miterlimit="10"/>
<path d="M74.5 55.8108C74.5 57.5132 74.574 59.2156 74.722 60.881C76.0543 61.029 77.4607 61.066 78.83 61.066C107.992 61.066 131.641 37.4547 131.641 8.29218C131.641 6.55279 131.567 4.85041 131.419 3.18504C130.086 3.03701 128.68 3 127.311 3C98.1483 3 74.5 26.6483 74.5 55.8108Z" fill="#FF0054" stroke="#FF5400" stroke-width="6" stroke-miterlimit="10"/>
<path d="M138.672 140.153H10.3276C6.29374 140.153 3 136.896 3 132.825V104.107C3 100.073 6.25673 96.7793 10.3276 96.7793H138.672C142.706 96.7793 146 100.036 146 104.107V132.825C146 136.859 142.743 140.153 138.672 140.153Z" fill="#FFBD00" stroke="#FF5400" stroke-width="6" stroke-miterlimit="10"/>
<path d="M113.211 244.147H35.7894C32.8288 244.147 30.2752 242 29.7941 239.077L13.5845 140.19H135.453L119.243 239.077C118.762 242 116.245 244.147 113.248 244.147H113.211Z" fill="#FFBD00" stroke="#FF5400" stroke-width="6" stroke-miterlimit="10"/>
</svg>
