<svg width="363" height="134" viewBox="0 0 363 134" fill="none" xmlns="http://www.w3.org/2000/svg">
<path d="M18.4133 37.1654H11.1645V65.8282H0.528809V0.611328H11.1645V26.7319H18.4133V0.611328H29.049V65.8239H18.4133V37.1611V37.1654Z" fill="#FF0054"/>
<path d="M47.2133 66.5271H45.1402C36.6707 66.5271 32.1519 62.2322 32.1519 54.1674V41.1093H42.6944V52.5059C42.6944 55.4862 43.7286 57.0654 46.179 57.0654C48.6295 57.0654 49.659 55.4862 49.659 51.456V49.968C49.659 45.3217 49.1885 43.6558 45.3312 39.0096L38.5528 30.9447C34.034 25.5089 32.7156 21.3008 32.7156 14.8151V12.7111C32.7156 4.03457 37.4208 0 45.797 0H47.7769C56.5305 0 59.9174 3.59207 59.9174 11.3055V21.9993H49.659V12.62C49.659 10.4292 49.1885 8.76327 46.6496 8.76327C44.1106 8.76327 43.5422 10.2513 43.5422 13.3228V14.5505C43.5422 18.2337 44.2969 20.2466 47.8701 24.5415L54.6485 32.6931C59.4469 38.476 60.9516 41.8077 60.9516 49.1697V51.2738C60.9516 60.8266 56.5305 66.5228 47.2086 66.5228L47.2133 66.5271Z" fill="#FF0054"/>
<path d="M88.1577 0.611328V10.0774H74.601V27.1701H85.2367V37.0743H74.601V55.9197H88.7214V65.8239H63.9653V0.611328H88.153H88.1577Z" fill="#FF0054"/>
<path d="M117.433 53.5553H109.713L108.302 65.8282H98.7935L107.361 0.611328H119.972L129.103 65.8239H118.844L117.433 53.551V53.5553ZM116.301 43.8246L113.478 19.7213L110.748 43.8246H116.301Z" fill="#FF0054"/>
<path d="M141.434 65.8239H130.798V0.611328H148.021C155.079 0.611328 158.657 3.41818 158.657 10.6891V22.2592C158.657 27.695 155.927 29.7991 154.045 30.5843C156.398 31.5474 158.657 33.3 158.657 37.686V60.5616C158.657 63.1906 159.221 64.4183 159.691 65.3814V65.8196H149.149C148.678 65.1168 148.115 63.9802 148.115 60.4748V40.8399C148.115 37.9463 147.551 36.7186 144.164 36.7186H141.434V65.8196V65.8239ZM141.434 27.4304H144.257C147.178 27.4304 148.115 25.6777 148.115 22.7841V13.6695C148.115 10.8626 147.458 9.46136 144.257 9.46136H141.434V27.4304Z" fill="#FF0054"/>
<path d="M180.12 10.0774V65.8239H169.577V10.0774H160.637V0.611328H189.064V10.0774H180.124H180.12Z" fill="#FF0054"/>
<path d="M217.673 53.5553H209.954L208.542 65.8282H199.034L207.601 0.611328H220.212L229.343 65.8239H219.084L217.673 53.551V53.5553ZM216.541 43.8246L213.718 19.7213L210.988 43.8246H216.541Z" fill="#FF0054"/>
<path d="M240.64 0.611328L249.771 35.5863V0.611328H259.466V65.8239H250.805L240.64 28.3111V65.8239H231.039V0.611328H240.64Z" fill="#FF0054"/>
<path d="M263.421 0.611328H279.703C288.834 0.611328 291.657 5.43112 291.657 13.1445V52.8482C291.657 60.8263 288.456 65.8196 279.703 65.8196H263.421V0.611328ZM274.057 56.3579H276.596C279.796 56.3579 280.737 54.7787 280.737 51.2734V14.5501C280.737 10.7802 279.703 9.4657 277.066 9.4657H274.057V56.3579Z" fill="#FF0054"/>
<path d="M0.528809 67.1469H16.8108C25.9417 67.1469 28.7648 71.9667 28.7648 79.6801V119.384C28.7648 127.362 25.5644 132.355 16.8108 132.355H0.528809V67.1426V67.1469ZM11.1645 122.893H13.7081C16.9086 122.893 17.8496 121.314 17.8496 117.809V81.0814C17.8496 77.3114 16.8154 75.9969 14.1786 75.9969H11.1645V122.889V122.893Z" fill="#FF0054"/>
<path d="M56.7214 67.1475V76.6135H43.1694V93.7062H53.8051V103.61H43.1694V122.456H57.2897V132.36H32.5337V67.1475H56.7214Z" fill="#FF0054"/>
<path d="M74.2284 133.063H72.1553C63.6859 133.063 59.167 128.768 59.167 120.704V107.645H69.7095V119.042C69.7095 122.022 70.7437 123.601 73.1895 123.601C75.6353 123.601 76.6742 122.022 76.6742 117.992V116.504C76.6742 111.858 76.2037 110.192 72.3463 105.546L65.568 97.4809C61.0491 92.0451 59.7307 87.837 59.7307 81.3513V79.2472C59.7307 70.5707 64.4359 66.5361 72.8122 66.5361H74.7874C83.541 66.5361 86.9279 70.1282 86.9279 77.8416V88.5354H76.6695V79.1561C76.6695 76.9653 76.199 75.2994 73.6554 75.2994C71.1118 75.2994 70.5481 76.7874 70.5481 79.8589V81.0866C70.5481 84.7698 71.3028 86.7828 74.8759 91.0776L81.6543 99.2292C86.4527 105.012 87.9621 108.344 87.9621 115.706V117.81C87.9621 127.363 83.541 133.063 74.2191 133.063H74.2284Z" fill="#FF0054"/>
<path d="M101.617 132.36H90.981V67.1475H101.617V132.36Z" fill="#FF0054"/>
<path d="M115.458 133.241C109.248 133.241 105.292 128.07 105.292 121.32V80.5617C105.292 73.2865 108.307 66.5361 118.374 66.5361H120.447C131.837 66.5361 133.156 73.46 133.156 81.1734V87.8326H122.804V80.4706C122.804 77.577 122.05 75.9979 119.417 75.9979C117.158 75.9979 116.124 77.577 116.124 80.4706V118.599C116.124 121.667 117.442 123.246 119.604 123.246C122.334 123.246 123.559 121.493 123.559 119.038V102.734H118.761V92.7435H133.631V132.36H127.607C127.514 132.009 126.666 128.768 125.818 125.961C125.064 128.152 121.491 133.237 116.124 133.237H115.467L115.458 133.241Z" fill="#FF0054"/>
<path d="M146.894 67.1475L156.025 102.122V67.1475H165.72V132.36H157.059L146.894 94.8472V132.36H137.292V67.1475H146.894Z" fill="#FF0054"/>
<path d="M193.485 133.063H191.412C182.943 133.063 178.424 128.768 178.424 120.704V107.645H188.966V119.042C188.966 122.022 190.001 123.601 192.451 123.601C194.901 123.601 195.931 122.022 195.931 117.992V116.504C195.931 111.858 195.46 110.192 191.603 105.546L184.825 97.4809C180.306 92.0451 178.988 87.837 178.988 81.3513V79.2472C178.988 70.5707 183.693 66.5361 192.069 66.5361H194.049C202.803 66.5361 206.189 70.1282 206.189 77.8416V88.5354H195.931V79.1561C195.931 76.9653 195.461 75.2994 192.922 75.2994C190.383 75.2994 189.814 76.7874 189.814 79.8589V81.0866C189.814 84.7698 190.569 86.7828 194.142 91.0776L200.92 99.2292C205.719 105.012 207.224 108.344 207.224 115.706V117.81C207.224 127.363 202.803 133.063 193.481 133.063H193.485Z" fill="#FF0054"/>
<path d="M227.652 119.128V103.966H238.101V119.042C238.101 126.052 235.655 133.154 225.392 133.154H223.039C212.311 133.154 209.958 125.965 209.958 119.393V79.5982C209.958 72.939 213.065 66.54 222.662 66.54H225.108C236.778 66.54 238.096 73.7285 238.096 80.1274V91.7843H227.647V80.301C227.647 77.4941 226.706 76.0061 224.069 76.0061C221.432 76.0061 220.775 77.4074 220.775 80.301V119.042C220.775 121.935 221.81 123.51 224.162 123.51C226.701 123.51 227.647 121.757 227.647 119.128H227.652Z" fill="#FF0054"/>
<path d="M259.372 103.702H252.123V132.365H241.488V67.1523H252.123V93.273H259.372V67.1523H270.008V132.365H259.372V103.702Z" fill="#FF0054"/>
<path d="M302.763 117.814C302.763 126.929 299.469 133.154 289.211 133.154H287.422C277.257 133.154 273.679 126.933 273.679 117.814V81.5248C273.679 72.4969 277.35 66.5361 287.324 66.5361H289.113C299.465 66.5361 302.758 72.4969 302.758 81.438V117.814H302.763ZM291.941 80.9999C291.941 77.5813 290.716 76.0022 288.27 76.0022C285.54 76.0022 284.506 77.6681 284.506 80.9999V118.513C284.506 121.32 285.354 123.51 288.363 123.51C291.186 123.51 291.941 121.32 291.941 118.513V80.9999Z" fill="#FF0054"/>
<path d="M335.238 117.814C335.238 126.929 331.945 133.154 321.682 133.154H319.893C309.728 133.154 306.15 126.933 306.15 117.814V81.5248C306.15 72.4969 309.821 66.5361 319.8 66.5361H321.589C331.94 66.5361 335.234 72.4969 335.234 81.438V117.814H335.238ZM324.416 80.9999C324.416 77.5813 323.191 76.0022 320.745 76.0022C318.015 76.0022 316.981 77.6681 316.981 80.9999V118.513C316.981 121.32 317.824 123.51 320.839 123.51C323.662 123.51 324.416 121.32 324.416 118.513V80.9999Z" fill="#FF0054"/>
<path d="M349.54 67.1469V122.277H362.529V132.355H338.905V67.1426H349.54V67.1469Z" fill="#FF0054"/>
</svg>
