<svg width="170" height="170" viewBox="0 0 170 170" fill="none" xmlns="http://www.w3.org/2000/svg">
<path d="M25.1816 145.65C8.62562 129.554 0.347656 109.319 0.347656 84.9447C0.347656 60.5707 8.62562 40.4506 25.1816 24.5845C41.9674 8.48845 61.8576 0.44043 84.8519 0.44043C107.846 0.44043 127.621 8.48845 144.177 24.5845C160.963 40.4506 169.356 60.5707 169.356 84.9447C169.356 109.319 160.963 129.554 144.177 145.65C127.621 161.516 107.846 169.449 84.8519 169.449C61.8576 169.449 41.9674 161.516 25.1816 145.65ZM47.946 46.6591C39.2081 56.7766 34.8392 69.5385 34.8392 84.9447C34.8392 100.351 39.2081 113.113 47.946 123.23C56.6838 133.348 68.9858 138.407 84.8519 138.407C100.718 138.407 113.02 133.348 121.758 123.23C130.496 113.113 134.865 100.351 134.865 84.9447C134.865 69.5385 130.496 56.7766 121.758 46.6591C113.02 36.5416 100.718 31.4828 84.8519 31.4828C68.9858 31.4828 56.6838 36.5416 47.946 46.6591Z" fill="#FF5400"/>
</svg>
