<svg width="928" height="442" viewBox="0 0 928 442" fill="none" xmlns="http://www.w3.org/2000/svg">
<path d="M726.451 262.84C726.451 260.139 726.333 257.438 726.097 254.797C723.974 254.562 721.733 254.503 719.55 254.503C673.073 254.503 635.384 291.959 635.384 338.222C635.384 340.981 635.502 343.682 635.738 346.324C637.861 346.558 640.102 346.617 642.285 346.617C688.762 346.617 726.451 309.102 726.451 262.84Z" fill="#FF0054" stroke="#390099" stroke-width="6" stroke-miterlimit="10"/>
<path d="M787.163 99.5467C787.163 96.8461 787.281 94.1455 787.516 91.5036C789.64 91.2687 791.881 91.21 794.063 91.21C840.541 91.21 878.23 128.666 878.23 174.929C878.23 177.688 878.112 180.389 877.876 183.031C875.753 183.266 873.512 183.324 871.329 183.324C824.852 183.324 787.163 145.809 787.163 99.5467Z" fill="#FF0054" stroke="#390099" stroke-width="6" stroke-miterlimit="10"/>
<path d="M498.259 99.5467C498.259 96.8461 498.377 94.1455 498.613 91.5036C500.736 91.2687 502.977 91.21 505.16 91.21C551.637 91.21 589.326 128.666 589.326 174.929C589.326 177.688 589.208 180.389 588.972 183.031C586.849 183.266 584.608 183.324 582.425 183.324C535.948 183.324 498.259 145.809 498.259 99.5467Z" fill="#FF0054" stroke="#390099" stroke-width="6" stroke-miterlimit="10"/>
<path d="M628.056 218.913L588.279 182.277" stroke="#390099" stroke-width="6"/>
<path d="M726.451 254.503L766.228 217.867" stroke="#390099" stroke-width="6"/>
<path d="M915.913 217.867L876.137 181.231" stroke="#390099" stroke-width="6"/>
<path d="M150.869 322.713L251.834 240.088C254.077 242.8 256.818 245.195 260.015 247.105C263.212 249.014 266.569 250.282 270.011 250.965L244.325 378.555C243.457 382.83 238.619 384.98 234.864 382.738L151.623 333.018C147.869 330.775 147.482 325.484 150.869 322.713Z" fill="#FF0054" stroke="#390099" stroke-width="6" stroke-miterlimit="10"/>
<path d="M125.577 162.959L247.647 208.407C245.042 215.327 245.031 222.797 247.282 229.529L124.138 272.067C120.013 273.494 115.733 270.392 115.787 266.028L117.054 168.833C117.102 164.445 121.475 161.442 125.577 162.959Z" fill="#FF0054" stroke="#390099" stroke-width="6" stroke-miterlimit="10"/>
<path d="M162.513 98.1678L249.255 54.6127C253.171 52.6491 257.827 55.1551 258.349 59.5133L273.711 189.702C266.836 190.733 260.354 194.011 255.413 199.261L160.95 108.402C157.805 105.386 158.612 100.14 162.513 98.1678Z" fill="#FF0054" stroke="#390099" stroke-width="6" stroke-miterlimit="10"/>
<path d="M318.719 59.0521L401.96 108.772C405.715 111.014 406.11 116.29 402.715 119.076L301.843 201.614C299.639 199.007 296.97 196.696 293.879 194.849C290.591 192.886 287.101 191.6 283.548 190.932L309.258 63.2347C310.127 58.9596 314.964 56.8093 318.719 59.0521Z" fill="#FF0054" stroke="#390099" stroke-width="6" stroke-miterlimit="10"/>
<path d="M280.687 252.191C287.726 251.055 294.336 247.525 299.24 241.923L396.697 328.181C399.968 331.089 399.371 336.359 395.547 338.48L310.588 385.448C306.772 387.554 302.008 385.229 301.318 380.912L280.687 252.191Z" fill="#FF0054" stroke="#390099" stroke-width="6" stroke-miterlimit="10"/>
<path d="M306.396 211.74L428.184 163.929C432.252 162.324 436.671 165.262 436.789 169.646L439.337 266.766C439.455 271.149 435.217 274.336 431.062 272.973L306.658 232.494C308.96 225.64 308.777 218.322 306.396 211.74Z" fill="#FF0054" stroke="#390099" stroke-width="6" stroke-miterlimit="10"/>
<path d="M249.997 204.845C251.201 202.838 252.579 201.017 254.123 199.397C259.069 194.153 265.556 190.878 272.437 189.849C275.848 189.349 279.359 189.399 282.816 190.053C286.365 190.722 289.851 192.009 293.135 193.975C296.223 195.824 298.889 198.138 301.09 200.748C303.448 203.576 305.267 206.757 306.51 210.147C308.893 216.722 309.076 224.031 306.772 230.878C306.063 233.017 305.112 235.115 303.909 237.122C302.904 238.798 301.767 240.353 300.507 241.772C295.597 247.366 288.98 250.892 281.934 252.026C278.254 252.633 274.46 252.577 270.741 251.848C267.303 251.164 263.934 249.886 260.756 247.983C257.578 246.08 254.825 243.673 252.584 240.957C250.166 237.991 248.344 234.644 247.153 231.1C244.899 224.377 244.91 216.917 247.517 210.006C248.166 208.241 248.993 206.521 249.997 204.845Z" fill="#FF0054" stroke="#390099" stroke-width="6" stroke-miterlimit="10"/>
<path d="M438.9 217.304L927.9 219.304" stroke="#390099" stroke-width="6"/>
</svg>
