<svg width="230" height="230" viewBox="0 0 230 230" fill="none" xmlns="http://www.w3.org/2000/svg">
<path d="M169.396 199.694L165.641 198.213C154.393 193.751 141.612 198.936 136.651 209.977L134.998 213.646C126.937 231.594 101.392 231.405 93.5725 213.353L91.9706 209.65C87.1649 198.54 74.4702 193.166 63.1536 197.472L59.3814 198.902C40.9854 205.895 23.0545 187.688 30.3061 169.396L31.7874 165.641C36.2486 154.393 31.064 141.612 20.0229 136.651L16.3541 134.998C-1.59409 126.937 -1.40461 101.392 16.6469 93.5725L20.3502 91.9706C31.4601 87.1649 36.8342 74.4703 32.5281 63.1536L31.0984 59.3814C24.1052 40.9854 42.3117 23.0545 60.6044 30.3061L64.3593 31.7874C75.6071 36.2486 88.3878 31.064 93.3485 20.0229L95.0021 16.3541C103.063 -1.59409 128.608 -1.40461 136.428 16.6469L138.029 20.3502C142.835 31.4601 155.53 36.8343 166.846 32.5281L170.619 31.0984C189.015 24.1052 206.946 42.3117 199.694 60.6044L198.213 64.3593C193.751 75.6071 198.936 88.3878 209.977 93.3485L213.646 95.0021C231.594 103.063 231.405 128.608 213.353 136.428L209.65 138.029C198.54 142.835 193.166 155.53 197.472 166.846L198.902 170.619C205.895 189.015 187.688 206.946 169.396 199.694Z" fill="#FF0054" stroke="#9E0059" stroke-width="5.31596" stroke-miterlimit="10"/>
<path d="M115 150.173C134.416 150.173 150.156 134.433 150.156 115.017C150.156 95.6011 134.416 79.8613 115 79.8613C95.584 79.8613 79.8442 95.6011 79.8442 115.017C79.8442 134.433 95.584 150.173 115 150.173Z" fill="#390099" stroke="#9E0059" stroke-width="5.31596" stroke-miterlimit="10"/>
</svg>
