<svg width="418" height="525" viewBox="0 0 418 525" fill="none" xmlns="http://www.w3.org/2000/svg">
<path fill-rule="evenodd" clip-rule="evenodd" d="M97.2074 3.00027C97.2074 55.0295 55.0294 97.2076 3.00011 97.2076H3.00006L3 427.561C55.0293 427.561 97.2073 469.739 97.2073 521.768H320.793C320.793 469.739 362.971 427.561 415 427.561V97.2076C362.971 97.2076 320.793 55.0295 320.793 3.00024V3H97.2074V3.00027Z" fill="#8C50F0"/>
<path d="M3.00006 97.2076V94.7405C1.63754 94.7405 0.532992 95.8451 0.532992 97.2076H3.00006ZM3 427.561H0.532934C0.532934 428.215 0.792856 428.843 1.25552 429.305C1.71819 429.768 2.34569 430.028 3 430.028L3 427.561ZM97.2073 521.768H94.7403C94.7403 523.131 95.8448 524.235 97.2073 524.235V521.768ZM320.793 521.768V524.235C322.155 524.235 323.26 523.131 323.26 521.768H320.793ZM415 427.561V430.028C416.363 430.028 417.467 428.923 417.467 427.561H415ZM415 97.2076H417.467C417.467 95.845 416.363 94.7405 415 94.7405V97.2076ZM320.793 3H323.26C323.26 1.63748 322.155 0.532934 320.793 0.532934V3ZM97.2074 3V0.532934C95.8449 0.532934 94.7404 1.63748 94.7404 3L97.2074 3ZM3.00011 99.6747C56.3919 99.6747 99.6745 56.3921 99.6745 3.00027H94.7404C94.7404 53.667 53.6669 94.7405 3.00011 94.7405V99.6747ZM3.00006 99.6747H3.00011V94.7405H3.00006V99.6747ZM5.46707 427.561L5.46712 97.2076H0.532992L0.532934 427.561H5.46707ZM3 430.028C53.6667 430.028 94.7403 471.102 94.7403 521.768H99.6744C99.6744 468.376 56.3918 425.094 3 425.094V430.028ZM320.793 519.301H97.2073V524.235H320.793V519.301ZM415 425.094C361.608 425.094 318.326 468.376 318.326 521.768H323.26C323.26 471.102 364.333 430.028 415 430.028V425.094ZM412.533 97.2076V427.561H417.467V97.2076H412.533ZM318.326 3.00024C318.326 56.392 361.608 99.6746 415 99.6746V94.7405C364.333 94.7405 323.26 53.667 323.26 3.00024H318.326ZM318.326 3V3.00024H323.26V3H318.326ZM97.2074 5.46707H320.793V0.532934H97.2074V5.46707ZM99.6745 3.00027V3H94.7404V3.00027H99.6745Z" fill="#390099"/>
<path fill-rule="evenodd" clip-rule="evenodd" d="M36.459 398.709V126.058C79.0889 114.494 112.848 81.3704 125.306 39.1162H292.694C305.146 81.3495 338.877 114.461 381.477 126.04V398.727C338.877 410.306 305.145 443.418 292.694 485.651H125.306C112.848 443.397 79.089 410.273 36.459 398.709Z" fill="#170029"/>
<path d="M36.459 126.058L35.8131 123.677C34.7382 123.968 33.9919 124.944 33.9919 126.058H36.459ZM36.459 398.709H33.9919C33.9919 399.823 34.7382 400.799 35.8131 401.09L36.459 398.709ZM125.306 39.1162V36.6491C124.212 36.6491 123.249 37.3694 122.939 38.4185L125.306 39.1162ZM292.694 39.1162L295.06 38.4185C294.751 37.3694 293.788 36.6491 292.694 36.6491V39.1162ZM381.477 126.04H383.944C383.944 124.927 383.199 123.952 382.124 123.66L381.477 126.04ZM381.477 398.727L382.124 401.107C383.199 400.815 383.944 399.84 383.944 398.727H381.477ZM292.694 485.651V488.118C293.788 488.118 294.751 487.398 295.06 486.349L292.694 485.651ZM125.306 485.651L122.94 486.349C123.249 487.398 124.212 488.118 125.306 488.118V485.651ZM33.9919 126.058V398.709H38.9261V126.058H33.9919ZM122.939 38.4185C110.723 79.8526 77.6145 112.338 35.8131 123.677L37.1048 128.439C80.5633 116.651 114.972 82.8883 127.672 39.8139L122.939 38.4185ZM292.694 36.6491H125.306V41.5833H292.694V36.6491ZM382.124 123.66C340.352 112.306 307.27 79.832 295.06 38.4185L290.327 39.8139C303.021 82.867 337.402 116.617 380.83 128.421L382.124 123.66ZM383.944 398.727V126.04H379.01V398.727H383.944ZM295.06 486.349C307.27 444.935 340.352 412.461 382.124 401.107L380.83 396.346C337.402 408.15 303.021 441.9 290.327 484.953L295.06 486.349ZM125.306 488.118H292.694V483.184H125.306V488.118ZM35.8131 401.09C77.6147 412.429 110.724 444.915 122.94 486.349L127.672 484.953C114.973 441.879 80.5634 408.116 37.1048 396.328L35.8131 401.09Z" fill="#390099"/>
<path d="M122.184 326.155C122.184 333.508 122.616 340.887 123.643 348.105C136.321 351.051 149.431 352.511 162.974 352.511C260.342 352.511 339.167 273.687 339.167 176.319C339.167 168.804 338.734 161.587 337.707 154.369C325.029 151.423 311.919 149.963 298.376 149.963C201.008 149.963 122.184 228.787 122.184 326.155Z" fill="#FF5400" stroke="#9E0059" stroke-width="4.93413" stroke-miterlimit="10"/>
<path d="M89.043 383.354L123.671 348.104" stroke="#9E0059" stroke-width="4.93413" stroke-miterlimit="10"/>
<path d="M289.131 185.158C294.954 185.158 299.674 180.438 299.674 174.616C299.674 168.793 294.954 164.073 289.131 164.073C283.309 164.073 278.589 168.793 278.589 174.616C278.589 180.438 283.309 185.158 289.131 185.158Z" fill="#170029" stroke="#9E0059" stroke-width="4.93413" stroke-miterlimit="10"/>
<path d="M268.047 233.788C273.869 233.788 278.589 229.068 278.589 223.245C278.589 217.423 273.869 212.703 268.047 212.703C262.224 212.703 257.504 217.423 257.504 223.245C257.504 229.068 262.224 233.788 268.047 233.788Z" fill="#170029" stroke="#9E0059" stroke-width="4.93413" stroke-miterlimit="10"/>
<path d="M283.32 276.715C289.142 276.715 293.862 271.995 293.862 266.172C293.862 260.35 289.142 255.63 283.32 255.63C277.497 255.63 272.777 260.35 272.777 266.172C272.777 271.995 277.497 276.715 283.32 276.715Z" fill="#170029" stroke="#9E0059" stroke-width="4.93413" stroke-miterlimit="10"/>
<path d="M167.3 280.148C173.122 280.148 177.842 275.428 177.842 269.606C177.842 263.783 173.122 259.063 167.3 259.063C161.477 259.063 156.757 263.783 156.757 269.606C156.757 275.428 161.477 280.148 167.3 280.148Z" fill="#170029" stroke="#9E0059" stroke-width="4.93413" stroke-miterlimit="10"/>
<path d="M212.551 227.868C218.373 227.868 223.093 223.148 223.093 217.326C223.093 211.503 218.373 206.783 212.551 206.783C206.728 206.783 202.008 211.503 202.008 217.326C202.008 223.148 206.728 227.868 212.551 227.868Z" fill="#170029" stroke="#9E0059" stroke-width="4.93413" stroke-miterlimit="10"/>
<path d="M227.472 282.85C233.294 282.85 238.014 278.13 238.014 272.308C238.014 266.486 233.294 261.766 227.472 261.766C221.65 261.766 216.93 266.486 216.93 272.308C216.93 278.13 221.65 282.85 227.472 282.85Z" fill="#170029" stroke="#9E0059" stroke-width="4.93413" stroke-miterlimit="10"/>
<path d="M184.222 327.885C190.044 327.885 194.764 323.165 194.764 317.343C194.764 311.521 190.044 306.801 184.222 306.801C178.399 306.801 173.679 311.521 173.679 317.343C173.679 323.165 178.399 327.885 184.222 327.885Z" fill="#170029" stroke="#9E0059" stroke-width="4.93413" stroke-miterlimit="10"/>
</svg>
