<svg width="356" height="513" viewBox="0 0 356 513" fill="none" xmlns="http://www.w3.org/2000/svg">
<path fill-rule="evenodd" clip-rule="evenodd" d="M294.486 510C294.486 477.889 320.517 451.858 352.628 451.858C352.732 451.858 352.835 451.858 352.938 451.859L352.938 61.1416C352.835 61.1421 352.732 61.1424 352.629 61.1424C320.518 61.1424 294.486 35.1112 294.486 3.00015L61.1422 3.00015C61.1422 35.1112 35.1111 61.1424 3.00003 61.1424L3.00003 451.858C35.111 451.858 61.1422 477.889 61.1422 510L294.486 510Z" fill="#390099"/>
<path d="M294.486 510V512.712C295.205 512.712 295.895 512.426 296.404 511.918C296.912 511.409 297.198 510.719 297.198 510H294.486ZM352.938 451.859L352.924 454.57C353.646 454.574 354.339 454.29 354.851 453.781C355.362 453.272 355.65 452.58 355.65 451.859H352.938ZM352.938 61.1416H355.65C355.65 60.4198 355.362 59.7279 354.85 59.2189C354.339 58.7099 353.645 58.4259 352.924 58.4297L352.938 61.1416ZM294.486 3.00015H297.198C297.198 1.50244 295.984 0.2883 294.486 0.2883V3.00015ZM61.1422 3.00015V0.2883C59.6445 0.2883 58.4304 1.50244 58.4304 3.00015H61.1422ZM3.00003 61.1424V58.4305C1.50232 58.4305 0.288177 59.6447 0.288177 61.1424H3.00003ZM3.00003 451.858H0.288177C0.288177 453.356 1.50232 454.57 3.00003 454.57V451.858ZM61.1422 510L58.4304 510C58.4304 511.498 59.6445 512.712 61.1422 512.712V510ZM352.628 449.146C319.02 449.146 291.774 476.391 291.774 510H297.198C297.198 479.387 322.015 454.57 352.628 454.57V449.146ZM352.952 449.147C352.844 449.146 352.736 449.146 352.628 449.146V454.57C352.727 454.57 352.825 454.57 352.924 454.57L352.952 449.147ZM350.226 61.1416L350.226 451.859H355.65L355.65 61.1416H350.226ZM352.924 58.4297C352.826 58.4303 352.728 58.4305 352.629 58.4305V63.8542C352.736 63.8542 352.844 63.854 352.952 63.8534L352.924 58.4297ZM352.629 58.4305C322.015 58.4305 297.198 33.6135 297.198 3.00015H291.775C291.775 36.6089 319.02 63.8542 352.629 63.8542V58.4305ZM61.1422 5.71204L294.486 5.71204V0.2883L61.1422 0.2883V5.71204ZM3.00003 63.8542C36.6088 63.8542 63.8541 36.6089 63.8541 3.00015H58.4304C58.4304 33.6135 33.6134 58.4305 3.00003 58.4305V63.8542ZM5.71188 451.858L5.71188 61.1424H0.288177L0.288177 451.858H5.71188ZM63.8541 510C63.854 476.391 36.6087 449.146 3.00003 449.146V454.57C33.6133 454.57 58.4303 479.387 58.4304 510L63.8541 510ZM294.486 507.288L61.1422 507.288V512.712L294.486 512.712V507.288Z" fill="#9E0059"/>
<path fill-rule="evenodd" clip-rule="evenodd" d="M324.72 86.1028L324.72 426.12C298.879 434.714 278.338 454.915 269.281 480.541L86.3474 480.541C77.3808 455.172 57.1598 435.12 31.6835 426.382L31.6835 86.6162C57.1595 77.8791 77.3803 57.8269 86.3471 32.4584L269.56 32.4584C278.755 57.7156 299.141 77.5961 324.72 86.1028Z" fill="#170029"/>
<path d="M324.72 426.12L325.576 428.694C326.684 428.325 327.432 427.288 327.432 426.12H324.72ZM324.72 86.1028H327.432C327.432 84.9348 326.684 83.898 325.576 83.5295L324.72 86.1028ZM269.281 480.541V483.253C270.43 483.253 271.455 482.528 271.838 481.445L269.281 480.541ZM86.3474 480.541L83.7905 481.445C84.1736 482.528 85.1981 483.253 86.3474 483.253V480.541ZM31.6835 426.382H28.9716C28.9716 427.541 29.7078 428.572 30.8038 428.948L31.6835 426.382ZM31.6835 86.6162L30.8038 84.051C29.7078 84.4268 28.9716 85.4575 28.9716 86.6162H31.6835ZM86.3471 32.4584V29.7466C85.1978 29.7466 84.1733 30.4711 83.7903 31.5547L86.3471 32.4584ZM269.56 32.4584L272.108 31.5307C271.718 30.4595 270.7 29.7466 269.56 29.7466V32.4584ZM327.432 426.12L327.432 86.1028H322.008L322.008 426.12H327.432ZM271.838 481.445C280.617 456.607 300.53 437.023 325.576 428.694L323.864 423.547C297.228 432.405 276.06 453.224 266.724 479.637L271.838 481.445ZM86.3474 483.253L269.281 483.253V477.829L86.3474 477.829V483.253ZM30.8038 428.948C55.496 437.416 75.0997 456.856 83.7905 481.445L88.9043 479.637C79.6618 453.488 58.8236 432.823 32.5632 423.817L30.8038 428.948ZM28.9716 86.6162L28.9716 426.382H34.3954L34.3954 86.6162H28.9716ZM83.7903 31.5547C75.0993 56.1429 55.4958 75.5828 30.8038 84.051L32.5632 89.1814C58.8233 80.1754 79.6614 59.5109 88.9039 33.3622L83.7903 31.5547ZM269.56 29.7466L86.3471 29.7466V35.1703L269.56 35.1703V29.7466ZM325.576 83.5295C300.784 75.2848 281.02 56.0115 272.108 31.5307L267.011 33.3861C276.489 59.4196 297.497 79.9074 323.864 88.6761L325.576 83.5295Z" fill="#9E0059"/>
<path d="M183.012 65.1614C226.146 67.8485 261.106 103.148 263.369 146.338C264.161 161.131 261.191 175.188 255.336 187.605C252.903 192.753 249.481 197.307 245.861 201.691C243.909 204.039 242.184 206.584 240.741 209.3C236.923 216.229 234.745 224.206 234.745 232.663C234.745 233.879 234.801 235.095 234.886 236.311C235.226 241.035 236.272 245.56 237.856 249.803C239.214 253.367 240.062 257.101 240.062 260.919V261.202C240.062 264.879 239.751 268.471 239.129 271.978C237.29 282.528 231.718 291.919 224.477 299.81C221.932 302.582 219.697 305.665 217.859 308.974C213.956 315.961 211.749 324.05 211.749 332.62C211.749 337.061 212.343 341.36 213.475 345.433C214.974 350.977 217.463 356.125 220.687 360.707C223.912 365.289 226.118 371.059 226.146 376.914V378.13C226.146 383.391 225.298 388.482 223.77 393.234C220.122 404.407 211.382 412.977 200.86 418.238C197.268 420.048 193.93 422.254 190.932 424.885C183.719 431.079 178.345 439.338 175.771 448.757C172.802 438.065 166.296 428.873 157.584 422.509C155.887 421.236 154.105 420.105 152.239 419.086C148.703 417.135 145.337 414.815 142.537 411.93C134.08 403.19 128.876 391.283 128.876 378.13V376.773C128.876 370.663 130.969 364.78 134.391 359.717C137.106 355.701 139.228 351.232 140.642 346.48C141.943 342.096 142.65 337.429 142.65 332.62C142.65 323.569 140.189 315.112 135.89 307.871C133.995 304.675 131.732 301.705 129.187 299.047C123.841 293.446 119.825 286.601 117.59 279.191C115.893 273.506 114.96 267.453 114.96 261.202C114.96 259.986 114.988 258.769 115.073 257.553C115.242 254.725 115.78 251.925 116.742 249.266C118.014 245.758 118.891 242.053 119.315 238.235C119.542 236.396 119.655 234.558 119.655 232.663C119.655 223.357 117.053 214.674 112.527 207.291C111.311 205.255 109.925 203.332 108.398 201.521C106.107 198.806 104.07 195.893 102.345 192.81C95.4433 180.421 91.5117 166.194 91.5117 151.005C91.5117 101.705 133.005 62.0785 183.041 65.1898L183.012 65.1614Z" fill="#FFBD00" stroke="#390099" stroke-width="5.13761" stroke-miterlimit="10"/>
<path d="M178.458 311.011L170.058 279.049C168.163 271.893 163.015 266.038 156.142 263.295L137.361 255.771L153.992 250.453C161.884 247.936 167.823 241.431 169.662 233.37L176.592 202.681L184.766 233.794C186.774 241.431 192.487 247.512 199.983 250.001L217.661 255.884L199.955 262.786C192.714 265.614 187.368 271.837 185.643 279.389L178.487 310.982L178.458 311.011Z" fill="#170029" stroke="#390099" stroke-width="5.13761" stroke-miterlimit="10"/>
</svg>
