<svg width="583" height="281" viewBox="0 0 583 281" fill="none" xmlns="http://www.w3.org/2000/svg">
<path fill-rule="evenodd" clip-rule="evenodd" d="M3 233C27.8528 233 48 253.147 48 278L535 278C535 253.147 555.147 233 580 233L580 48C555.147 48 535 27.8528 535 3L48 3C48 27.8528 27.8528 48 3 48L3 233Z" fill="#FF0054"/>
<path d="M48 278H45C45 279.657 46.3431 281 48 281V278ZM3 233H0C0 234.657 1.34315 236 3 236V233ZM535 278V281C536.657 281 538 279.657 538 278H535ZM580 233V236C581.657 236 583 234.657 583 233H580ZM580 48H583C583 46.3431 581.657 45 580 45V48ZM535 3H538C538 1.34314 536.657 0 535 0V3ZM48 3V0C46.3431 0 45 1.34314 45 3H48ZM3 48L3 45C1.34315 45 0 46.3431 0 48H3ZM51 278C51 251.49 29.5097 230 3 230L3 236C26.196 236 45 254.804 45 278H51ZM535 275L48 275V281L535 281V275ZM538 278C538 254.804 556.804 236 580 236V230C553.49 230 532 251.49 532 278H538ZM577 48L577 233H583L583 48H577ZM532 3C532 29.5097 553.49 51 580 51V45C556.804 45 538 26.196 538 3H532ZM48 6L535 6V0L48 0V6ZM3 51C29.5097 51 51 29.5097 51 3H45C45 26.196 26.196 45 3 45L3 51ZM6 233L6 48H0L0 233H6Z" fill="#9E0059"/>
<path fill-rule="evenodd" clip-rule="evenodd" d="M516.511 257L66.4885 257C61.5226 235.128 44.7729 217.524 23 210.724L23 64.4753C42.812 58.2876 58.4648 43.1544 64.865 24L518.135 24C524.535 43.1544 540.188 58.2876 560 64.4753V210.724C538.227 217.524 521.477 235.128 516.511 257Z" fill="#170029"/>
<path d="M66.4885 257L63.563 257.664C63.8732 259.03 65.0876 260 66.4885 260V257ZM516.511 257V260C517.912 260 519.127 259.03 519.437 257.664L516.511 257ZM23 210.724H20C20 212.036 20.853 213.196 22.1056 213.587L23 210.724ZM23 64.4753L22.1056 61.6117C20.853 62.003 20 63.163 20 64.4753H23ZM64.865 24V21C63.5745 21 62.4286 21.8253 62.0197 23.0493L64.865 24ZM518.135 24L520.98 23.0493C520.571 21.8253 519.425 21 518.135 21V24ZM560 64.4753H563C563 63.163 562.147 62.003 560.894 61.6117L560 64.4753ZM560 210.724L560.894 213.587C562.147 213.196 563 212.036 563 210.724H560ZM66.4885 260L516.511 260V254L66.4885 254V260ZM22.1056 213.587C42.9042 220.083 58.8443 236.881 63.563 257.664L69.4141 256.336C64.2008 233.375 46.6417 214.965 23.8944 207.86L22.1056 213.587ZM20 64.4753L20 210.724H26L26 64.4753H20ZM62.0197 23.0493C55.9348 41.2601 41.0281 55.7018 22.1056 61.6117L23.8944 67.3389C44.596 60.8734 60.9949 45.0487 67.7104 24.9507L62.0197 23.0493ZM518.135 21L64.865 21V27L518.135 27V21ZM560.894 61.6117C541.972 55.7018 527.065 41.2601 520.98 23.0493L515.29 24.9507C522.005 45.0487 538.404 60.8734 559.106 67.3389L560.894 61.6117ZM563 210.724V64.4753H557V210.724H563ZM519.437 257.664C524.156 236.881 540.096 220.083 560.894 213.587L559.106 207.86C536.358 214.965 518.799 233.375 513.586 256.336L519.437 257.664Z" fill="#9E0059"/>
<path d="M164 131.214C164 131.487 164 131.744 163.985 132.016C163.909 129.837 163.667 127.567 163.273 125.222C163.743 127.144 164 129.156 164 131.214Z" stroke="#FFBD00" stroke-width="6" stroke-miterlimit="10"/>
<path d="M114.288 127.401C114.439 126.236 114.621 125.04 114.848 123.845" stroke="#FFBD00" stroke-width="6" stroke-miterlimit="10"/>
<path d="M163.274 125.222C163.667 127.567 163.909 129.837 163.985 132.016C163.622 143.397 155.646 152.87 144.993 155.488C143.071 155.957 141.058 156.214 139 156.214C136.942 156.214 134.884 155.957 132.947 155.473C122.066 152.764 114 142.927 114 131.214C114 130.791 114.015 130.352 114.03 129.928C114.045 129.595 114.076 129.262 114.121 128.929C114.166 128.43 114.227 127.915 114.288 127.401" stroke="#FFBD00" stroke-width="6" stroke-miterlimit="10"/>
<path d="M114.848 123.844C115.877 118.442 117.708 112.737 120.341 107.062C125.229 96.5593 131.978 88.1301 138.94 83C145.901 88.1301 152.65 96.5593 157.538 107.062C160.172 112.737 162.003 118.442 163.032 123.844" stroke="#FFBD00" stroke-width="6" stroke-miterlimit="10"/>
<path d="M163.032 123.845C163.123 124.314 163.198 124.768 163.274 125.222" stroke="#FFBD00" stroke-width="6" stroke-miterlimit="10"/>
<path d="M139 156.214L138.939 232.455" stroke="#FFBD00" stroke-width="6" stroke-miterlimit="10" stroke-linecap="round"/>
<path d="M470 131.214C470 131.487 470 131.744 469.985 132.016C469.909 129.837 469.667 127.567 469.273 125.222C469.743 127.144 470 129.156 470 131.214Z" stroke="#FFBD00" stroke-width="6" stroke-miterlimit="10"/>
<path d="M420.288 127.401C420.439 126.236 420.621 125.04 420.848 123.845" stroke="#FFBD00" stroke-width="6" stroke-miterlimit="10"/>
<path d="M469.274 125.222C469.667 127.567 469.909 129.837 469.985 132.016C469.622 143.397 461.646 152.87 450.993 155.488C449.071 155.957 447.058 156.214 445 156.214C442.942 156.214 440.884 155.957 438.947 155.473C428.066 152.764 420 142.927 420 131.214C420 130.791 420.015 130.352 420.03 129.928C420.045 129.595 420.076 129.262 420.121 128.929C420.166 128.43 420.227 127.915 420.288 127.401" stroke="#FFBD00" stroke-width="6" stroke-miterlimit="10"/>
<path d="M420.848 123.844C421.877 118.442 423.708 112.737 426.341 107.062C431.229 96.5593 437.978 88.1301 444.94 83C451.901 88.1301 458.65 96.5593 463.538 107.062C466.172 112.737 468.003 118.442 469.032 123.844" stroke="#FFBD00" stroke-width="6" stroke-miterlimit="10"/>
<path d="M469.032 123.845C469.123 124.314 469.198 124.768 469.274 125.222" stroke="#FFBD00" stroke-width="6" stroke-miterlimit="10"/>
<path d="M445 156.214L444.939 232.455" stroke="#FFBD00" stroke-width="6" stroke-miterlimit="10" stroke-linecap="round"/>
<path d="M292 160.037V232.437" stroke="#9E0059" stroke-width="6" stroke-miterlimit="10" stroke-linecap="round"/>
<path d="M292 160C314.091 160 332 142.091 332 120C332 97.9086 314.091 80 292 80C269.909 80 252 97.9086 252 120C252 142.091 269.909 160 292 160Z" stroke="#9E0059" stroke-width="6" stroke-miterlimit="10"/>
</svg>
