<svg width="432" height="668" viewBox="0 0 432 668" fill="none" xmlns="http://www.w3.org/2000/svg">
<path d="M334.589 555.564H97.46C88.3244 555.564 80.9185 562.97 80.9185 572.106V647.954C80.9185 657.09 88.3244 664.496 97.46 664.496H334.589C343.724 664.496 351.13 657.09 351.13 647.954V572.106C351.13 562.97 343.724 555.564 334.589 555.564Z" fill="#FFBD00" stroke="#FF5400" stroke-width="6.75732" stroke-miterlimit="10"/>
<path d="M74.5449 373.851L114.001 555.565" stroke="#FF5400" stroke-width="6.75732" stroke-miterlimit="10"/>
<path d="M357.26 373.851L317.755 555.565" stroke="#FF5400" stroke-width="6.75732" stroke-miterlimit="10"/>
<path d="M267.936 421.53V453.3C267.936 459.576 262.828 464.733 256.552 464.733H175.254C168.978 464.733 163.821 459.576 163.821 453.3V421.481C180.509 425.714 198.023 427.952 216.025 427.952C234.026 427.952 251.297 425.714 267.936 421.53Z" fill="#FFBD00" stroke="#FF5400" stroke-width="6.75732" stroke-miterlimit="10"/>
<path d="M428 215.976C428 315.128 359.888 398.371 267.936 421.529C251.297 425.713 233.928 427.951 216.024 427.951C198.12 427.951 180.509 425.713 163.821 421.481C71.9665 398.225 4 315.031 4 215.976C4 98.9196 98.9196 4 216.024 4C333.129 4 428 98.9196 428 215.976Z" fill="#FFBD00" stroke="#FF5400" stroke-width="6.75732" stroke-miterlimit="10"/>
<path d="M97.46 555.564V664.496" stroke="#FF5400" stroke-width="6.75732" stroke-miterlimit="10"/>
<path d="M119.304 555.564V664.496" stroke="#FF5400" stroke-width="6.75732" stroke-miterlimit="10"/>
<path d="M141.101 555.564V664.496" stroke="#FF5400" stroke-width="6.75732" stroke-miterlimit="10"/>
<path d="M162.946 555.564V664.496" stroke="#FF5400" stroke-width="6.75732" stroke-miterlimit="10"/>
<path d="M184.742 555.564V664.496" stroke="#FF5400" stroke-width="6.75732" stroke-miterlimit="10"/>
<path d="M206.586 555.564V664.496" stroke="#FF5400" stroke-width="6.75732" stroke-miterlimit="10"/>
<path d="M228.382 555.564V664.496" stroke="#FF5400" stroke-width="6.75732" stroke-miterlimit="10"/>
<path d="M250.227 555.564V664.496" stroke="#FF5400" stroke-width="6.75732" stroke-miterlimit="10"/>
<path d="M272.022 555.564V664.496" stroke="#FF5400" stroke-width="6.75732" stroke-miterlimit="10"/>
<path d="M293.867 555.564V664.496" stroke="#FF5400" stroke-width="6.75732" stroke-miterlimit="10"/>
<path d="M315.711 555.564V664.496" stroke="#FF5400" stroke-width="6.75732" stroke-miterlimit="10"/>
<path d="M337.508 555.564V664.496" stroke="#FF5400" stroke-width="6.75732" stroke-miterlimit="10"/>
<path d="M81.4536 592.442H351.617" stroke="#FF5400" stroke-width="6.75732" stroke-miterlimit="10"/>
<path d="M80.9185 633.019H351.082" stroke="#FF5400" stroke-width="6.75732" stroke-miterlimit="10"/>
<path d="M227.269 323.443C227.057 354.663 223.001 381.001 216.646 381.004C210.205 381.007 206.128 353.963 206.014 322.201C205.951 304.199 207.16 284.683 209.935 267.717C210.893 267.84 211.86 267.938 212.833 268.01C214.138 268.109 215.458 268.157 216.787 268.157C217.942 268.157 219.089 268.121 220.226 268.046C221.28 267.977 222.325 267.878 223.36 267.75C226.195 285.099 227.395 305.112 227.269 323.443Z" stroke="#FF5400" stroke-width="5"/>
<path d="M164.212 218.858C164.278 219.93 164.379 220.992 164.511 222.046C147.048 224.902 126.885 226.096 108.456 225.952C77.3943 225.71 51.2598 221.663 51.2568 215.332C51.2538 209.01 77.3015 204.966 108.294 204.709C126.778 204.559 147.021 205.753 164.544 208.621C164.409 209.675 164.302 210.737 164.23 211.812C164.146 213.021 164.104 214.242 164.104 215.473C164.104 216.61 164.14 217.739 164.212 218.858Z" stroke="#FF5400" stroke-width="5"/>
<path d="M184.474 257.083C174.159 271.427 160.773 286.507 147.656 299.423C125.503 321.247 104.122 336.899 99.6379 332.418C94.7948 327.578 113.461 303.006 138.018 279.045C149.647 267.694 162.599 256.481 175.003 247.564C175.377 248.052 175.76 248.531 176.153 249.004C177.943 251.171 179.9 253.189 182.007 255.045C182.81 255.748 183.63 256.431 184.474 257.083Z" stroke="#FF5400" stroke-width="5"/>
<path d="M170.426 240.516C155.334 249.81 137.173 258.586 120.141 265.456C91.5704 276.98 66.1753 283.128 63.7717 277.312C61.4878 271.793 81.468 259.251 107.752 247.684C125.775 239.749 146.761 232.272 165.562 227.836C165.906 229.258 166.304 230.659 166.762 232.033C167.379 233.906 168.1 235.732 168.92 237.504C169.39 238.528 169.893 239.531 170.426 240.516Z" stroke="#FF5400" stroke-width="5"/>
<path d="M280.121 366.711C274.093 369.207 259.686 345.138 247.321 315.307C240.781 299.532 234.812 282.144 230.957 266.226C231.792 265.995 232.618 265.744 233.435 265.472C235.907 264.648 238.296 263.649 240.589 262.484C241.664 261.94 242.717 261.359 243.747 260.742C252.924 275.766 261.578 293.728 268.358 310.569C279.822 339.047 285.922 364.313 280.121 366.711Z" stroke="#FF5400" stroke-width="5"/>
<path d="M269.469 215.473C269.469 216.67 269.43 217.859 269.349 219.035C269.283 220.047 269.187 221.05 269.061 222.046C268.753 224.525 268.274 226.949 267.631 229.308C267.361 230.311 267.059 231.299 266.73 232.277C265.954 234.591 265.017 236.836 263.94 238.994C263.47 239.931 262.973 240.853 262.452 241.757C261.237 243.864 259.881 245.879 258.393 247.789C257.765 248.597 257.112 249.39 256.439 250.159C255.074 251.719 253.619 253.198 252.08 254.586C251.051 255.514 249.982 256.406 248.881 257.253C247.243 258.514 245.528 259.678 243.747 260.741C242.717 261.357 241.664 261.938 240.589 262.483C238.296 263.647 235.908 264.647 233.435 265.47C232.618 265.742 231.792 265.994 230.957 266.224C228.493 266.913 225.955 267.425 223.36 267.748C222.324 267.877 221.279 267.975 220.226 268.044C219.088 268.119 217.942 268.155 216.787 268.155C215.457 268.155 214.137 268.107 212.832 268.008C211.86 267.937 210.893 267.838 209.935 267.715C207.462 267.392 205.041 266.901 202.688 266.245C201.655 265.961 200.638 265.644 199.632 265.299C197.399 264.53 195.235 263.614 193.148 262.567C192.179 262.079 191.227 261.564 190.296 261.019C188.263 259.837 186.321 258.52 184.474 257.083C183.63 256.43 182.81 255.748 182.007 255.044C179.9 253.189 177.943 251.171 176.153 249.004C175.76 248.531 175.377 248.052 175.003 247.564C173.3 245.346 171.767 242.99 170.426 240.515C169.894 239.53 169.391 238.527 168.921 237.504C168.101 235.732 167.379 233.906 166.763 232.032C166.305 230.658 165.906 229.257 165.562 227.835C165.107 225.944 164.754 224.01 164.512 222.046C164.38 220.993 164.278 219.93 164.212 218.858C164.14 217.739 164.104 216.61 164.104 215.473C164.104 214.243 164.146 213.022 164.23 211.812C164.302 210.738 164.41 209.675 164.545 208.621C164.853 206.266 165.314 203.955 165.921 201.707C166.194 200.698 166.496 199.701 166.828 198.717C167.592 196.433 168.511 194.218 169.567 192.083C170.028 191.158 170.513 190.249 171.025 189.354C172.216 187.27 173.548 185.274 175.003 183.382C175.647 182.547 176.314 181.733 177.003 180.936C178.808 178.859 180.774 176.925 182.881 175.153C183.402 174.71 183.935 174.282 184.474 173.863C186.641 172.178 188.943 170.657 191.361 169.322C192.119 168.903 192.891 168.502 193.672 168.122C195.672 167.14 197.743 166.287 199.874 165.566C201.015 165.177 202.173 164.829 203.347 164.524C205.493 163.955 207.693 163.524 209.935 163.231C210.95 163.099 211.973 162.998 213.006 162.926C214.254 162.836 215.514 162.791 216.787 162.791C217.885 162.791 218.975 162.824 220.055 162.893C221.166 162.959 222.267 163.06 223.36 163.198C225.721 163.491 228.032 163.94 230.286 164.539C231.268 164.797 232.235 165.084 233.193 165.398C235.56 166.17 237.853 167.11 240.059 168.197C240.954 168.637 241.831 169.104 242.696 169.595C244.858 170.816 246.923 172.187 248.881 173.693C249.68 174.309 250.464 174.947 251.227 175.608C252.751 176.925 254.2 178.329 255.565 179.814C256.552 180.888 257.498 182.002 258.396 183.157C259.63 184.744 260.776 186.405 261.827 188.129C262.321 188.943 262.793 189.773 263.245 190.617C264.589 193.119 265.736 195.744 266.664 198.471C266.864 199.058 267.053 199.647 267.233 200.243C268.05 202.949 268.654 205.751 269.029 208.621C269.157 209.618 269.259 210.621 269.331 211.636C269.421 212.902 269.469 214.183 269.469 215.473Z" fill="#FFBD00" stroke="#FF5400" stroke-width="5"/>
<path d="M203.346 164.524C202.173 164.83 201.015 165.177 199.874 165.566C197.743 166.288 195.672 167.141 193.672 168.122C192.891 168.503 192.119 168.904 191.361 169.323C182.046 154.518 173.192 136.489 166.176 119.404C154.086 89.9555 147.468 63.3181 153.43 60.8517C159.177 58.475 172.53 80.2213 184.474 108.089C192.139 125.965 199.225 146.364 203.346 164.524Z" stroke="#FF5400" stroke-width="5"/>
<path d="M223.36 163.199C222.267 163.061 221.165 162.959 220.055 162.893C218.974 162.825 217.885 162.792 216.786 162.792C215.514 162.792 214.254 162.837 213.006 162.926C211.973 162.998 210.949 163.1 209.935 163.232C207.106 145.93 205.903 125.974 206.019 107.679C206.217 76.3841 210.276 49.9413 216.646 49.9443C222.932 49.9473 226.967 75.7136 227.26 106.482C227.439 125.088 226.248 145.526 223.36 163.199Z" stroke="#FF5400" stroke-width="5"/>
<path d="M209.934 163.231C207.692 163.524 205.492 163.955 203.346 164.524C199.224 146.364 192.139 125.964 184.473 108.088C179.169 78.9276 178.325 54.2569 184.321 53.0656C190.574 51.8234 199.718 76.997 206.019 107.678C205.902 125.973 207.106 145.93 209.934 163.231Z" stroke="#FF5400" stroke-width="5"/>
<path d="M248.907 377.766C242.678 379.005 233.57 353.993 227.269 323.443C227.394 305.112 226.194 285.099 223.359 267.75C225.955 267.427 228.493 266.915 230.956 266.227C234.812 282.145 240.78 299.533 247.321 315.308C253.867 347.587 255.406 376.47 248.907 377.766Z" stroke="#FF5400" stroke-width="5"/>
<path d="M382.315 215.334C382.318 221.74 355.57 225.808 324.039 225.96C305.902 226.053 286.182 224.847 269.061 222.048C269.186 221.051 269.282 220.048 269.348 219.037C269.429 217.86 269.468 216.672 269.468 215.475C269.468 214.185 269.42 212.903 269.33 211.637C269.258 210.623 269.157 209.62 269.028 208.623C286.212 205.812 306.019 204.606 324.215 204.705C355.669 204.875 382.312 208.94 382.315 215.334Z" stroke="#FF5400" stroke-width="5"/>
<path d="M324.216 204.705C306.02 204.606 286.213 205.812 269.028 208.623C268.654 205.752 268.05 202.951 267.232 200.245C282.381 196.713 298.994 191.178 314.356 185.003C347.54 178.07 377.751 176.304 379.077 182.956C380.325 189.223 355.011 198.401 324.216 204.705Z" stroke="#FF5400" stroke-width="5"/>
<path d="M165.561 227.837C146.76 232.273 125.774 239.75 107.752 247.685C79.3185 252.723 55.5487 253.424 54.3784 247.542C53.1391 241.328 78.0134 232.252 108.455 225.954C126.885 226.098 147.048 224.903 164.511 222.048C164.753 224.011 165.106 225.945 165.561 227.837Z" stroke="#FF5400" stroke-width="5"/>
<path d="M184.474 173.862C183.935 174.281 183.402 174.709 182.881 175.152C180.774 176.924 178.807 178.858 177.002 180.935C176.314 181.731 175.646 182.546 175.003 183.381C160.68 173.084 145.624 159.725 132.719 146.629C110.847 124.443 95.1476 103.014 99.6375 98.5267C104.337 93.8303 127.58 111.236 150.829 134.683C162.91 146.862 174.991 160.674 184.474 173.862Z" stroke="#FF5400" stroke-width="5"/>
<path d="M175.003 183.383C173.548 185.275 172.216 187.271 171.025 189.354C156.097 180.09 138.063 171.308 121.064 164.396C95.1927 146.862 75.5087 128.83 79.0438 123.541C82.5729 118.264 106.678 129.494 132.72 146.631C145.624 159.727 160.68 173.086 175.003 183.383Z" stroke="#FF5400" stroke-width="5"/>
<path d="M333.731 332.62C329.406 336.951 309.315 322.5 287.987 301.849C274.149 288.451 259.79 272.44 248.88 257.255C249.981 256.408 251.05 255.516 252.08 254.588C253.618 253.199 255.073 251.72 256.438 250.161C257.111 249.391 257.764 248.598 258.393 247.79C272.575 257.982 287.475 271.183 300.293 284.156C322.347 306.468 338.242 328.106 333.731 332.62Z" stroke="#FF5400" stroke-width="5"/>
<path d="M354.308 307.467C350.767 312.771 326.464 301.417 300.294 284.155C287.476 271.182 272.576 257.981 258.394 247.789C259.881 245.88 261.237 243.865 262.452 241.758C277.362 250.98 295.328 259.712 312.255 266.59C338.141 284.131 357.843 302.175 354.308 307.467Z" stroke="#FF5400" stroke-width="5"/>
<path d="M304.792 142.163C291.043 156.57 274.269 171.746 258.396 183.159C257.498 182.004 256.552 180.89 255.564 179.816C254.199 178.331 252.75 176.927 251.227 175.61C250.463 174.948 249.679 174.311 248.88 173.694C259.054 159.533 272.231 144.653 285.186 131.842C307.528 109.749 329.214 93.8092 333.734 98.3261C337.933 102.523 324.458 121.557 304.792 142.163Z" stroke="#FF5400" stroke-width="5"/>
<path d="M285.186 131.839C272.231 144.651 259.055 159.53 248.88 173.692C246.923 172.186 244.857 170.815 242.696 169.594C251.856 154.822 260.533 137.021 267.403 120.199C285.042 94.082 303.275 74.1167 308.6 77.6728C313.913 81.2228 302.505 105.609 285.186 131.839Z" stroke="#FF5400" stroke-width="5"/>
<path d="M202.688 266.245C198.65 283.402 192.074 302.395 184.92 319.304C172.8 347.965 159.028 370.63 153.17 368.206C147.327 365.79 153.562 340.158 165.194 311.417C172.12 294.307 180.957 276.093 190.296 261.019C191.227 261.563 192.178 262.078 193.148 262.566C195.235 263.614 197.399 264.53 199.632 265.299C200.638 265.643 201.655 265.96 202.688 266.245Z" stroke="#FF5400" stroke-width="5"/>
<path d="M190.295 261.02C180.956 276.094 172.12 294.309 165.194 311.418C147.764 337.041 129.93 356.449 124.673 352.938C119.402 349.421 130.579 325.406 147.656 299.424C160.773 286.508 174.159 271.428 184.474 257.084C186.32 258.521 188.263 259.838 190.295 261.02Z" stroke="#FF5400" stroke-width="5"/>
<path d="M171.025 189.353C170.513 190.248 170.028 191.158 169.567 192.083C168.51 194.217 167.591 196.432 166.828 198.716C166.496 199.701 166.194 200.698 165.921 201.707C148.722 197.684 129.651 191.092 112.67 183.917C83.9588 171.786 61.2307 157.983 63.6612 152.12C66.1008 146.235 92.0766 152.605 121.064 164.395C138.063 171.307 156.097 180.089 171.025 189.353Z" stroke="#FF5400" stroke-width="5"/>
<path d="M165.921 201.708C165.314 203.956 164.853 206.267 164.544 208.622C147.021 205.755 126.778 204.56 108.294 204.71C77.8524 198.412 52.9721 189.337 54.2114 183.122C55.4536 176.893 82.04 178.049 112.67 183.919C129.651 191.094 148.722 197.685 165.921 201.708Z" stroke="#FF5400" stroke-width="5"/>
<path d="M369.518 278.808C367.088 284.684 341.187 278.344 312.254 266.589C295.327 259.711 277.361 250.979 262.451 241.757C262.972 240.853 263.469 239.931 263.939 238.994C265.016 236.836 265.953 234.591 266.729 232.277C267.058 231.298 267.36 230.31 267.63 229.308C284.602 233.307 303.367 239.787 320.129 246.851C349.017 259.019 371.958 272.917 369.518 278.808Z" stroke="#FF5400" stroke-width="5"/>
<path d="M378.909 247.709C377.669 253.962 350.897 252.777 320.129 246.853C303.367 239.789 284.602 233.309 267.63 229.31C268.273 226.951 268.752 224.526 269.061 222.048C286.182 224.847 305.902 226.053 324.039 225.96C354.837 232.261 380.154 241.441 378.909 247.709Z" stroke="#FF5400" stroke-width="5"/>
<path d="M267.403 120.2C260.533 137.022 251.855 154.823 242.696 169.595C241.831 169.104 240.954 168.637 240.059 168.197C237.853 167.111 235.56 166.171 233.192 165.399C232.234 165.084 231.267 164.797 230.286 164.54C234.27 147.526 240.765 128.686 247.85 111.858C260.033 82.9125 273.958 59.909 279.861 62.3485C285.775 64.7971 279.31 91.0333 267.403 120.2Z" stroke="#FF5400" stroke-width="5"/>
<path d="M247.851 111.856C240.765 128.685 234.27 147.525 230.286 164.538C228.032 163.94 225.721 163.491 223.359 163.197C226.248 145.525 227.439 125.087 227.26 106.481C233.552 76.2692 242.561 51.6703 248.743 52.8975C255.007 54.1427 253.804 81.0136 247.851 111.856Z" stroke="#FF5400" stroke-width="5"/>
<path d="M209.935 267.715C207.16 284.681 205.95 304.197 206.013 322.199C199.709 353.233 190.46 378.847 184.156 377.596C177.936 376.362 179.08 349.866 184.92 319.304C192.074 302.395 198.65 283.403 202.688 266.245C205.04 266.901 207.462 267.392 209.935 267.715Z" stroke="#FF5400" stroke-width="5"/>
<path d="M314.356 185C298.994 191.176 282.381 196.71 267.232 200.242C267.052 199.647 266.864 199.057 266.663 198.47C265.735 195.743 264.589 193.118 263.245 190.616C262.793 189.772 262.32 188.943 261.826 188.128C276.577 178.924 294.429 170.187 311.332 163.26C340.676 151.239 367.163 144.678 369.63 150.622C372.237 156.908 345.941 172.309 314.356 185Z" stroke="#FF5400" stroke-width="5"/>
<path d="M311.332 163.261C294.429 170.188 276.577 178.925 261.826 188.13C260.776 186.405 259.629 184.744 258.396 183.158C274.269 171.744 291.044 156.568 304.792 142.161C329.074 126.683 350.682 116.988 354.011 121.963C357.576 127.297 337.527 145.589 311.332 163.261Z" stroke="#FF5400" stroke-width="5"/>
<path d="M175.003 247.563C162.598 256.48 149.646 267.693 138.017 279.043C109.922 298.248 82.5217 311.545 78.7442 305.887C75.239 300.64 94.5787 282.857 120.141 265.454C137.173 258.584 155.334 249.808 170.426 240.514C171.767 242.989 173.299 245.345 175.003 247.563Z" stroke="#FF5400" stroke-width="5"/>
<path d="M191.361 169.322C188.943 170.657 186.641 172.178 184.474 173.863C174.991 160.674 162.91 146.863 150.829 134.684C131.876 106.831 118.84 79.8434 124.452 76.0957C129.831 72.5038 148.372 92.9031 166.176 119.403C173.192 136.488 182.046 154.517 191.361 169.322Z" stroke="#FF5400" stroke-width="5"/>
<path d="M308.379 351.359C303.17 354.837 285.627 335.83 268.358 310.567C261.579 293.726 252.925 275.763 243.748 260.74C245.529 259.677 247.244 258.513 248.881 257.253C259.792 272.438 274.15 288.449 287.988 301.847C303.584 326.248 313.378 348.022 308.379 351.359Z" stroke="#FF5400" stroke-width="5"/>
</svg>
