<svg width="974" height="539" viewBox="0 0 974 539" fill="none" xmlns="http://www.w3.org/2000/svg">
<path d="M391.505 306.095C391.505 303.754 391.607 301.413 391.812 299.122C393.652 298.919 395.596 298.868 397.487 298.868C437.78 298.868 470.454 331.34 470.454 371.446C470.454 373.839 470.352 376.18 470.147 378.47C468.307 378.674 466.364 378.725 464.472 378.725C424.179 378.725 391.505 346.202 391.505 306.095Z" fill="#390099" stroke="#FF5400" stroke-width="6" stroke-miterlimit="10"/>
<path d="M141.045 306.095C141.045 303.754 141.147 301.413 141.352 299.122C143.193 298.919 145.136 298.868 147.027 298.868C187.32 298.868 219.994 331.34 219.994 371.446C219.994 373.839 219.892 376.18 219.687 378.47C217.847 378.674 215.904 378.725 214.012 378.725C173.719 378.725 141.045 346.202 141.045 306.095Z" fill="#390099" stroke="#FF5400" stroke-width="6" stroke-miterlimit="10"/>
<path d="M141.952 299.775L107.469 268.014" stroke="#FF5400" stroke-width="6"/>
<path d="M391.505 298.867L357.021 267.106" stroke="#FF5400" stroke-width="6"/>
<path d="M338.872 164.531C338.872 162.19 338.77 159.848 338.565 157.558C336.724 157.354 334.781 157.303 332.89 157.303C292.597 157.303 259.923 189.775 259.923 229.882C259.923 232.274 260.025 234.615 260.23 236.906C262.07 237.109 264.013 237.16 265.905 237.16C306.198 237.16 338.872 204.637 338.872 164.531Z" fill="#390099" stroke="#FF5400" stroke-width="6" stroke-miterlimit="10"/>
<path d="M589.331 164.531C589.331 162.19 589.229 159.848 589.024 157.558C587.183 157.354 585.24 157.303 583.349 157.303C543.056 157.303 510.382 189.775 510.382 229.882C510.382 232.274 510.484 234.615 510.689 236.906C512.529 237.109 514.472 237.16 516.364 237.16C556.657 237.16 589.331 204.637 589.331 164.531Z" fill="#390099" stroke="#FF5400" stroke-width="6" stroke-miterlimit="10"/>
<path d="M479 266.581L513.483 234.82" stroke="#FF5400" stroke-width="6"/>
<path d="M227.254 267.106L261.737 235.345" stroke="#FF5400" stroke-width="6"/>
<path d="M76.0776 164.046C76.0776 161.705 75.9754 159.364 75.7708 157.074C73.9301 156.87 71.987 156.819 70.0951 156.819C29.8023 156.819 -2.87161 189.291 -2.87161 229.398C-2.87161 231.79 -2.76936 234.131 -2.56483 236.421C-0.724037 236.625 1.21902 236.676 3.11093 236.676C43.4037 236.676 76.0776 204.153 76.0776 164.046Z" fill="#390099" stroke="#FF5400" stroke-width="6" stroke-miterlimit="10"/>
<path d="M-36.4479 267.529L-1.96436 235.768" stroke="#FF5400" stroke-width="6"/>
<path d="M890.479 357.26L802.808 286.691C800.874 289.059 798.508 291.158 795.745 292.84C792.983 294.523 790.079 295.651 787.101 296.275L809.721 406.46C810.486 410.152 814.681 411.968 817.925 409.992L889.856 366.185C893.101 364.209 893.42 359.627 890.479 357.26Z" fill="#390099" stroke="#FF5400" stroke-width="6" stroke-miterlimit="10"/>
<path d="M912.212 219.357L806.575 259.75C808.853 265.702 808.883 272.154 806.953 277.99L913.778 313.579C917.357 314.773 921.055 312.054 920.996 308.286L919.614 224.351C919.56 220.562 915.762 218.008 912.212 219.357Z" fill="#390099" stroke="#FF5400" stroke-width="6" stroke-miterlimit="10"/>
<path d="M880.315 162.711L805.032 125.895C801.633 124.235 797.606 126.444 797.167 130.213L784.238 242.821C790.198 243.646 795.823 246.418 800.12 250.907L881.699 171.536C884.414 168.902 883.7 164.378 880.315 162.711Z" fill="#390099" stroke="#FF5400" stroke-width="6" stroke-miterlimit="10"/>
<path d="M744.732 129.47L672.801 173.277C669.556 175.253 669.229 179.822 672.178 182.202L759.767 252.696C761.668 250.419 763.972 248.394 766.644 246.767C769.484 245.037 772.502 243.892 775.577 243.281L752.936 133.002C752.172 129.31 747.976 127.494 744.732 129.47Z" fill="#390099" stroke="#FF5400" stroke-width="6" stroke-miterlimit="10"/>
<path d="M777.72 296.725C771.617 295.809 765.88 292.822 761.614 288.03L677.423 363.44C674.598 365.982 675.13 370.528 678.45 372.324L752.202 412.097C755.514 413.88 759.635 411.828 760.22 408.093L777.72 296.725Z" fill="#390099" stroke="#FF5400" stroke-width="6" stroke-miterlimit="10"/>
<path d="M755.624 261.006L649.965 220.841C646.435 219.493 642.615 222.072 642.526 225.86L640.602 309.781C640.513 313.569 644.194 316.282 647.79 315.066L755.458 278.937C753.444 273.037 753.58 266.715 755.624 261.006Z" fill="#390099" stroke="#FF5400" stroke-width="6" stroke-miterlimit="10"/>
<path d="M804.49 255.604C803.441 253.879 802.242 252.318 800.9 250.932C796.601 246.444 790.972 243.673 785.009 242.848C782.052 242.446 779.012 242.523 776.02 243.121C772.947 243.732 769.931 244.877 767.092 246.608C764.423 248.235 762.121 250.261 760.222 252.538C758.187 255.005 756.622 257.772 755.555 260.714C753.51 266.422 753.374 272.743 755.389 278.641C756.01 280.484 756.839 282.289 757.887 284.013C758.763 285.453 759.752 286.787 760.848 288.002C765.117 292.793 770.859 295.779 776.966 296.695C780.155 297.185 783.442 297.101 786.66 296.436C789.636 295.813 792.55 294.676 795.298 293.001C798.045 291.326 800.423 289.219 802.356 286.85C804.442 284.263 806.01 281.353 807.031 278.278C808.963 272.443 808.932 265.993 806.653 260.043C806.086 258.523 805.365 257.043 804.49 255.604Z" fill="#390099" stroke="#FF5400" stroke-width="6" stroke-miterlimit="10"/>
<path d="M641 267.407H-14" stroke="#FF5400" stroke-width="6"/>
</svg>
